G04 #@! TF.FileFunction,Copper,L2,Bot,Signal*
%FSLAX46Y46*%
G04 Gerber Fmt 4.6, Leading zero omitted, Abs format (unit mm)*
G04 Created by KiCad (PCBNEW 4.0.4-stable) date Monday, 13 March 2017 'PMt' 15:44:01*
%MOMM*%
%LPD*%
G01*
G04 APERTURE LIST*
%ADD10C,0.100000*%
%ADD11C,1.524000*%
%ADD12C,3.000000*%
%ADD13R,1.400000X1.400000*%
%ADD14C,1.400000*%
%ADD15R,2.000000X2.000000*%
%ADD16C,2.000000*%
%ADD17O,1.600000X1.600000*%
%ADD18C,1.651000*%
%ADD19C,0.600000*%
%ADD20C,0.500000*%
%ADD21C,0.750000*%
%ADD22C,0.254000*%
G04 APERTURE END LIST*
D10*
D11*
X4060000Y12480000D03*
X4060000Y14480000D03*
X4060000Y16480000D03*
D12*
X10865000Y1725000D03*
X3245000Y1725000D03*
X10865000Y4265000D03*
X3245000Y4265000D03*
X8325000Y9345000D03*
D11*
X54680000Y25220000D03*
X52140000Y25220000D03*
X49600000Y25220000D03*
X47060000Y25220000D03*
X39440000Y25220000D03*
X36900000Y25220000D03*
X34360000Y25220000D03*
D13*
X28010000Y18870000D03*
D14*
X28010000Y13870000D03*
D15*
X54680000Y13790000D03*
D16*
X54680000Y16330000D03*
D17*
X41345000Y9345000D03*
X43885000Y9345000D03*
X46425000Y9345000D03*
X48965000Y9345000D03*
X48965000Y16965000D03*
X46425000Y16965000D03*
X43885000Y16965000D03*
X41345000Y16965000D03*
X15945000Y9980000D03*
X18485000Y9980000D03*
X21025000Y9980000D03*
X23565000Y9980000D03*
X23565000Y17600000D03*
X21025000Y17600000D03*
X18485000Y17600000D03*
X15945000Y17600000D03*
D11*
X6250000Y24330000D03*
X8790000Y24330000D03*
X11330000Y24330000D03*
X13870000Y24330000D03*
D13*
X44520000Y19505000D03*
D14*
X39520000Y19505000D03*
D16*
X45790000Y23315000D03*
X40710000Y23315000D03*
D18*
X13405000Y7440000D03*
X21025000Y7440000D03*
X11500000Y20140000D03*
X11500000Y12520000D03*
X23565000Y20140000D03*
X15945000Y20140000D03*
X15945000Y23950000D03*
X23565000Y23950000D03*
X30550000Y12520000D03*
X30550000Y20140000D03*
X36900000Y20140000D03*
X36900000Y12520000D03*
X34360000Y12520000D03*
X34360000Y20140000D03*
X54680000Y19505000D03*
X47060000Y19505000D03*
D19*
X52140000Y20775000D03*
X52140000Y23315000D03*
D20*
X28010000Y18870000D02*
X29280000Y18870000D01*
X29280000Y18870000D02*
X30550000Y20140000D01*
X28010000Y18870000D02*
X26740000Y17600000D01*
X26740000Y17600000D02*
X23565000Y17600000D01*
D21*
X11500000Y20140000D02*
X5420000Y20140000D01*
X2460000Y8980000D02*
X9715000Y1725000D01*
X2460000Y17180000D02*
X2460000Y8980000D01*
X5420000Y20140000D02*
X2460000Y17180000D01*
X9715000Y1725000D02*
X10865000Y1725000D01*
X15945000Y23950000D02*
X15945000Y24595000D01*
X15945000Y24595000D02*
X14560000Y25980000D01*
X14560000Y25980000D02*
X12980000Y25980000D01*
X12980000Y25980000D02*
X11500000Y24500000D01*
X11500000Y24500000D02*
X11500000Y20140000D01*
X39520000Y19505000D02*
X41345000Y19505000D01*
X56585000Y15695000D02*
X54680000Y13790000D01*
X56585000Y20140000D02*
X56585000Y15695000D01*
X54680000Y22045000D02*
X56585000Y20140000D01*
X50870000Y22045000D02*
X54680000Y22045000D01*
X50235000Y21410000D02*
X50870000Y22045000D01*
X43250000Y21410000D02*
X50235000Y21410000D01*
X41345000Y19505000D02*
X43250000Y21410000D01*
X48965000Y13790000D02*
X54680000Y13790000D01*
X14675000Y4900000D02*
X15310000Y5535000D01*
X15310000Y5535000D02*
X26105000Y5535000D01*
X10865000Y1725000D02*
X11500000Y1725000D01*
X11500000Y1725000D02*
X14675000Y4900000D01*
X32455000Y11885000D02*
X32455000Y14425000D01*
X26105000Y5535000D02*
X32455000Y11885000D01*
X36900000Y25220000D02*
X36900000Y25855000D01*
X48965000Y9345000D02*
X48965000Y13790000D01*
X48965000Y13790000D02*
X39440000Y13790000D01*
X28010000Y13870000D02*
X28725000Y13870000D01*
X28725000Y13870000D02*
X29280000Y14425000D01*
X29280000Y14425000D02*
X32455000Y14425000D01*
X32455000Y14425000D02*
X38805000Y14425000D01*
X38805000Y14425000D02*
X39440000Y13790000D01*
X36900000Y25220000D02*
X36900000Y20140000D01*
X36900000Y20140000D02*
X37535000Y19505000D01*
X37535000Y19505000D02*
X39520000Y19505000D01*
X23565000Y9980000D02*
X24120000Y9980000D01*
X24120000Y9980000D02*
X28010000Y13870000D01*
D20*
X54680000Y19505000D02*
X54680000Y16330000D01*
X34360000Y12520000D02*
X36900000Y12520000D01*
X36900000Y12520000D02*
X41345000Y12520000D01*
X41345000Y12520000D02*
X43885000Y9980000D01*
X43885000Y9980000D02*
X43885000Y9345000D01*
X48965000Y16965000D02*
X48965000Y17600000D01*
X48965000Y17600000D02*
X52140000Y20775000D01*
X52140000Y23315000D02*
X52140000Y25220000D01*
X47060000Y19505000D02*
X47060000Y17600000D01*
X47060000Y17600000D02*
X46425000Y16965000D01*
X18485000Y17600000D02*
X20390000Y15695000D01*
X41980000Y15060000D02*
X43885000Y16965000D01*
X40075000Y15060000D02*
X41980000Y15060000D01*
X39440000Y15695000D02*
X40075000Y15060000D01*
X20390000Y15695000D02*
X39440000Y15695000D01*
X18485000Y17600000D02*
X18485000Y19759000D01*
X18104000Y20140000D02*
X15945000Y20140000D01*
X18485000Y19759000D02*
X18104000Y20140000D01*
D21*
X22612500Y25537500D02*
X25502500Y25537500D01*
X25502500Y25537500D02*
X29060000Y21980000D01*
X15375000Y22045000D02*
X19120000Y22045000D01*
X22612500Y25537500D02*
X22295000Y25220000D01*
X22295000Y25220000D02*
X19120000Y22045000D01*
X14368000Y18288000D02*
X14368000Y20980000D01*
X14368000Y21038000D02*
X15375000Y22045000D01*
X14368000Y20980000D02*
X14368000Y21038000D01*
X14368000Y17600000D02*
X14310000Y17658000D01*
X14310000Y17658000D02*
X14310000Y17730000D01*
X14310000Y17600000D02*
X14310000Y17730000D01*
X14368000Y18288000D02*
X14368000Y17600000D01*
X29060000Y21980000D02*
X34360000Y21980000D01*
X4060000Y12480000D02*
X7560000Y12480000D01*
X7560000Y12480000D02*
X12680000Y17600000D01*
X12680000Y17600000D02*
X14310000Y17600000D01*
X14310000Y17600000D02*
X15945000Y17600000D01*
X34360000Y25220000D02*
X34360000Y21980000D01*
X34360000Y21980000D02*
X34360000Y20140000D01*
X44520000Y19505000D02*
X43885000Y19505000D01*
X43885000Y19505000D02*
X41345000Y16965000D01*
X41345000Y16965000D02*
X36900000Y16965000D01*
X36900000Y16965000D02*
X34360000Y20140000D01*
D20*
X21025000Y9980000D02*
X21025000Y10107000D01*
X21025000Y10107000D02*
X17088000Y14044000D01*
X17088000Y14044000D02*
X10484000Y14044000D01*
X10484000Y14044000D02*
X8325000Y11885000D01*
X8325000Y11885000D02*
X8325000Y9345000D01*
X18485000Y9980000D02*
X18485000Y10107000D01*
X18485000Y10107000D02*
X17088000Y11504000D01*
X17088000Y11504000D02*
X14294000Y11504000D01*
X14294000Y11504000D02*
X13405000Y10615000D01*
X13405000Y7440000D02*
X13405000Y10615000D01*
X13405000Y10615000D02*
X11500000Y12520000D01*
X21025000Y7440000D02*
X18485000Y7440000D01*
X18485000Y7440000D02*
X15945000Y9980000D01*
X21025000Y7440000D02*
X25470000Y7440000D01*
X25470000Y7440000D02*
X30550000Y12520000D01*
X23565000Y23950000D02*
X23565000Y20140000D01*
X23565000Y20140000D02*
X21025000Y17600000D01*
D21*
X13870000Y24330000D02*
X13870000Y23540000D01*
X8060000Y14480000D02*
X4060000Y14480000D01*
X13060000Y19480000D02*
X8060000Y14480000D01*
X13060000Y22730000D02*
X13060000Y19480000D01*
X13870000Y23540000D02*
X13060000Y22730000D01*
D20*
X45790000Y23315000D02*
X45790000Y23950000D01*
X45790000Y23950000D02*
X47060000Y25220000D01*
X39440000Y25220000D02*
X39440000Y23950000D01*
X39440000Y23950000D02*
X40710000Y23315000D01*
D22*
G36*
X21898322Y26251678D02*
X18701644Y23055000D01*
X17019608Y23055000D01*
X16971217Y23103391D01*
X17219976Y23180656D01*
X17417340Y23727131D01*
X17390553Y24307535D01*
X17219976Y24719344D01*
X16971215Y24796610D01*
X16124605Y23950000D01*
X16138748Y23935857D01*
X15959143Y23756252D01*
X15945000Y23770395D01*
X15930858Y23756252D01*
X15751253Y23935857D01*
X15765395Y23950000D01*
X15751253Y23964142D01*
X15930858Y24143747D01*
X15945000Y24129605D01*
X16791610Y24976215D01*
X16714344Y25224976D01*
X16167869Y25422340D01*
X15587465Y25395553D01*
X15175656Y25224976D01*
X15105323Y24998536D01*
X15055010Y25120303D01*
X14662370Y25513629D01*
X14149100Y25726757D01*
X13593339Y25727242D01*
X13079697Y25515010D01*
X12686371Y25122370D01*
X12606605Y24930273D01*
X12552397Y25061143D01*
X12310213Y25130608D01*
X11509605Y24330000D01*
X11523748Y24315857D01*
X11344143Y24136252D01*
X11330000Y24150395D01*
X10529392Y23349787D01*
X10598857Y23107603D01*
X11122302Y22920856D01*
X11677368Y22948638D01*
X12061143Y23107603D01*
X12130607Y23349785D01*
X12221811Y23258581D01*
X12126882Y23116510D01*
X12050000Y22730000D01*
X12050000Y21494194D01*
X11722869Y21612340D01*
X11142465Y21585553D01*
X10730656Y21414976D01*
X10653390Y21166215D01*
X11500000Y20319605D01*
X11514143Y20333747D01*
X11693748Y20154142D01*
X11679605Y20140000D01*
X11693748Y20125857D01*
X11514143Y19946252D01*
X11500000Y19960395D01*
X10653390Y19113785D01*
X10730656Y18865024D01*
X10940780Y18789136D01*
X7641644Y15490000D01*
X5045654Y15490000D01*
X5243629Y15687630D01*
X5456757Y16200900D01*
X5457242Y16756661D01*
X5245010Y17270303D01*
X4852370Y17663629D01*
X4339100Y17876757D01*
X3783339Y17877242D01*
X3269697Y17665010D01*
X2876371Y17272370D01*
X2663243Y16759100D01*
X2662758Y16203339D01*
X2874990Y15689697D01*
X3084342Y15479979D01*
X2876371Y15272370D01*
X2663243Y14759100D01*
X2662758Y14203339D01*
X2874990Y13689697D01*
X3084342Y13479979D01*
X2876371Y13272370D01*
X2663243Y12759100D01*
X2662758Y12203339D01*
X2874990Y11689697D01*
X3267630Y11296371D01*
X3780900Y11083243D01*
X4336661Y11082758D01*
X4850303Y11294990D01*
X5025619Y11470000D01*
X7440000Y11470000D01*
X7440000Y11289399D01*
X7117200Y11156020D01*
X6516091Y10555959D01*
X6190372Y9771541D01*
X6189630Y8922185D01*
X6513980Y8137200D01*
X7114041Y7536091D01*
X7898459Y7210372D01*
X8747815Y7209630D01*
X9532800Y7533980D01*
X10133909Y8134041D01*
X10459628Y8918459D01*
X10460370Y9767815D01*
X10136020Y10552800D01*
X9535959Y11153909D01*
X9210000Y11289259D01*
X9210000Y11518420D01*
X10039349Y12347770D01*
X10039247Y12230763D01*
X10261126Y11693774D01*
X10671613Y11282570D01*
X11208214Y11059754D01*
X11709104Y11059317D01*
X12520000Y10248421D01*
X12520000Y8620202D01*
X12167570Y8268387D01*
X11944754Y7731786D01*
X11944247Y7150763D01*
X12166126Y6613774D01*
X12576613Y6202570D01*
X13113214Y5979754D01*
X13694237Y5979247D01*
X14231226Y6201126D01*
X14642430Y6611613D01*
X14865246Y7148214D01*
X14865753Y7729237D01*
X14643874Y8266226D01*
X14290000Y8620718D01*
X14290000Y10248420D01*
X14660291Y10618712D01*
X14619233Y10557264D01*
X14510000Y10008113D01*
X14510000Y9951887D01*
X14619233Y9402736D01*
X14930302Y8937189D01*
X15395849Y8626120D01*
X15945000Y8516887D01*
X16121438Y8551983D01*
X17859208Y6814213D01*
X17859210Y6814210D01*
X18146325Y6622367D01*
X18485000Y6555000D01*
X19844798Y6555000D01*
X20196613Y6202570D01*
X20733214Y5979754D01*
X21314237Y5979247D01*
X21851226Y6201126D01*
X22205718Y6555000D01*
X25469995Y6555000D01*
X25470000Y6554999D01*
X25765475Y6613774D01*
X25808675Y6622367D01*
X26095790Y6814210D01*
X26095791Y6814211D01*
X30341261Y11059682D01*
X30839237Y11059247D01*
X31376226Y11281126D01*
X31787430Y11691613D01*
X32010246Y12228214D01*
X32010248Y12230763D01*
X32899247Y12230763D01*
X33121126Y11693774D01*
X33531613Y11282570D01*
X34068214Y11059754D01*
X34649237Y11059247D01*
X35186226Y11281126D01*
X35540718Y11635000D01*
X35719798Y11635000D01*
X36071613Y11282570D01*
X36608214Y11059754D01*
X37189237Y11059247D01*
X37726226Y11281126D01*
X38080718Y11635000D01*
X40978420Y11635000D01*
X41955598Y10657822D01*
X41894151Y10698880D01*
X41345000Y10808113D01*
X40795849Y10698880D01*
X40330302Y10387811D01*
X40019233Y9922264D01*
X39910000Y9373113D01*
X39910000Y9316887D01*
X40019233Y8767736D01*
X40330302Y8302189D01*
X40795849Y7991120D01*
X41345000Y7881887D01*
X41894151Y7991120D01*
X42359698Y8302189D01*
X42615000Y8684275D01*
X42870302Y8302189D01*
X43335849Y7991120D01*
X43885000Y7881887D01*
X44434151Y7991120D01*
X44899698Y8302189D01*
X45155000Y8684275D01*
X45410302Y8302189D01*
X45875849Y7991120D01*
X46425000Y7881887D01*
X46974151Y7991120D01*
X47439698Y8302189D01*
X47709986Y8706703D01*
X47812611Y8489866D01*
X48227577Y8113959D01*
X48615961Y7953096D01*
X48838000Y8075085D01*
X48838000Y9218000D01*
X49092000Y9218000D01*
X49092000Y8075085D01*
X49314039Y7953096D01*
X49702423Y8113959D01*
X50117389Y8489866D01*
X50356914Y8995959D01*
X50235629Y9218000D01*
X49092000Y9218000D01*
X48838000Y9218000D01*
X48818000Y9218000D01*
X48818000Y9472000D01*
X48838000Y9472000D01*
X48838000Y10614915D01*
X49092000Y10614915D01*
X49092000Y9472000D01*
X50235629Y9472000D01*
X50356914Y9694041D01*
X50117389Y10200134D01*
X49702423Y10576041D01*
X49314039Y10736904D01*
X49092000Y10614915D01*
X48838000Y10614915D01*
X48615961Y10736904D01*
X48227577Y10576041D01*
X47812611Y10200134D01*
X47709986Y9983297D01*
X47439698Y10387811D01*
X46974151Y10698880D01*
X46425000Y10808113D01*
X45875849Y10698880D01*
X45410302Y10387811D01*
X45155000Y10005725D01*
X44899698Y10387811D01*
X44434151Y10698880D01*
X44413614Y10702965D01*
X41970790Y13145790D01*
X41850197Y13226367D01*
X41683675Y13337633D01*
X41627484Y13348810D01*
X41345000Y13405001D01*
X41344995Y13405000D01*
X38080202Y13405000D01*
X37981126Y13504250D01*
X53045000Y13504250D01*
X53045000Y12663690D01*
X53141673Y12430301D01*
X53320302Y12251673D01*
X53553691Y12155000D01*
X54394250Y12155000D01*
X54553000Y12313750D01*
X54553000Y13663000D01*
X54807000Y13663000D01*
X54807000Y12313750D01*
X54965750Y12155000D01*
X55806309Y12155000D01*
X56039698Y12251673D01*
X56218327Y12430301D01*
X56315000Y12663690D01*
X56315000Y13504250D01*
X56156250Y13663000D01*
X54807000Y13663000D01*
X54553000Y13663000D01*
X53203750Y13663000D01*
X53045000Y13504250D01*
X37981126Y13504250D01*
X37728387Y13757430D01*
X37191786Y13980246D01*
X36610763Y13980753D01*
X36073774Y13758874D01*
X35719282Y13405000D01*
X35540202Y13405000D01*
X35188387Y13757430D01*
X34651786Y13980246D01*
X34070763Y13980753D01*
X33533774Y13758874D01*
X33122570Y13348387D01*
X32899754Y12811786D01*
X32899247Y12230763D01*
X32010248Y12230763D01*
X32010753Y12809237D01*
X31788874Y13346226D01*
X31378387Y13757430D01*
X30841786Y13980246D01*
X30260763Y13980753D01*
X29723774Y13758874D01*
X29312570Y13348387D01*
X29089754Y12811786D01*
X29089317Y12310896D01*
X25103420Y8325000D01*
X22205202Y8325000D01*
X21853387Y8677430D01*
X21728532Y8729274D01*
X22039698Y8937189D01*
X22309986Y9341703D01*
X22412611Y9124866D01*
X22827577Y8748959D01*
X23215961Y8588096D01*
X23438000Y8710085D01*
X23438000Y9853000D01*
X23692000Y9853000D01*
X23692000Y8710085D01*
X23914039Y8588096D01*
X24302423Y8748959D01*
X24717389Y9124866D01*
X24956914Y9630959D01*
X24835629Y9853000D01*
X23692000Y9853000D01*
X23438000Y9853000D01*
X23418000Y9853000D01*
X23418000Y10107000D01*
X23438000Y10107000D01*
X23438000Y11249915D01*
X23692000Y11249915D01*
X23692000Y10107000D01*
X24835629Y10107000D01*
X24956914Y10329041D01*
X24717389Y10835134D01*
X24302423Y11211041D01*
X23914039Y11371904D01*
X23692000Y11249915D01*
X23438000Y11249915D01*
X23215961Y11371904D01*
X22827577Y11211041D01*
X22412611Y10835134D01*
X22309986Y10618297D01*
X22039698Y11022811D01*
X21574151Y11333880D01*
X21025000Y11443113D01*
X20954491Y11429088D01*
X19448855Y12934725D01*
X27254331Y12934725D01*
X27316169Y12698958D01*
X27817122Y12522581D01*
X28347440Y12551336D01*
X28703831Y12698958D01*
X28765669Y12934725D01*
X28010000Y13690395D01*
X27254331Y12934725D01*
X19448855Y12934725D01*
X17713790Y14669790D01*
X17636660Y14721326D01*
X17426675Y14861633D01*
X17370484Y14872810D01*
X17088000Y14929001D01*
X17087995Y14929000D01*
X11437356Y14929000D01*
X13098356Y16590000D01*
X14908378Y16590000D01*
X14930302Y16557189D01*
X15395849Y16246120D01*
X15945000Y16136887D01*
X16494151Y16246120D01*
X16959698Y16557189D01*
X17215000Y16939275D01*
X17470302Y16557189D01*
X17935849Y16246120D01*
X18485000Y16136887D01*
X18661438Y16171983D01*
X19764208Y15069213D01*
X19764210Y15069210D01*
X20051325Y14877367D01*
X20105907Y14866510D01*
X20390000Y14809999D01*
X20390005Y14810000D01*
X27028556Y14810000D01*
X26959474Y14740918D01*
X27074723Y14625669D01*
X26838958Y14563831D01*
X26662581Y14062878D01*
X26691336Y13532560D01*
X26838958Y13176169D01*
X27074725Y13114331D01*
X27830395Y13870000D01*
X27816252Y13884142D01*
X27995858Y14063748D01*
X28010000Y14049605D01*
X28024142Y14063748D01*
X28203748Y13884142D01*
X28189605Y13870000D01*
X28945275Y13114331D01*
X29181042Y13176169D01*
X29357419Y13677122D01*
X29328664Y14207440D01*
X29181042Y14563831D01*
X28945277Y14625669D01*
X29060526Y14740918D01*
X28991444Y14810000D01*
X39073420Y14810000D01*
X39449208Y14434213D01*
X39449210Y14434210D01*
X39526340Y14382674D01*
X39736326Y14242366D01*
X40075000Y14174999D01*
X40075005Y14175000D01*
X41979995Y14175000D01*
X41980000Y14174999D01*
X42262484Y14231190D01*
X42318675Y14242367D01*
X42605790Y14434210D01*
X43708562Y15536983D01*
X43885000Y15501887D01*
X44434151Y15611120D01*
X44899698Y15922189D01*
X45155000Y16304275D01*
X45410302Y15922189D01*
X45875849Y15611120D01*
X46425000Y15501887D01*
X46974151Y15611120D01*
X47439698Y15922189D01*
X47695000Y16304275D01*
X47950302Y15922189D01*
X48415849Y15611120D01*
X48965000Y15501887D01*
X49514151Y15611120D01*
X49979698Y15922189D01*
X50035835Y16006205D01*
X53044716Y16006205D01*
X53293106Y15405057D01*
X53355251Y15342803D01*
X53320302Y15328327D01*
X53141673Y15149699D01*
X53045000Y14916310D01*
X53045000Y14075750D01*
X53203750Y13917000D01*
X54553000Y13917000D01*
X54553000Y13937000D01*
X54807000Y13937000D01*
X54807000Y13917000D01*
X56156250Y13917000D01*
X56315000Y14075750D01*
X56315000Y14916310D01*
X56218327Y15149699D01*
X56039698Y15328327D01*
X56005166Y15342630D01*
X56065278Y15402637D01*
X56314716Y16003352D01*
X56315284Y16653795D01*
X56066894Y17254943D01*
X55607363Y17715278D01*
X55565000Y17732869D01*
X55565000Y18324798D01*
X55917430Y18676613D01*
X56140246Y19213214D01*
X56140753Y19794237D01*
X55918874Y20331226D01*
X55508387Y20742430D01*
X54971786Y20965246D01*
X54390763Y20965753D01*
X53853774Y20743874D01*
X53442570Y20333387D01*
X53219754Y19796786D01*
X53219247Y19215763D01*
X53441126Y18678774D01*
X53795000Y18324282D01*
X53795000Y17733398D01*
X53755057Y17716894D01*
X53294722Y17257363D01*
X53045284Y16656648D01*
X53044716Y16006205D01*
X50035835Y16006205D01*
X50290767Y16387736D01*
X50400000Y16936887D01*
X50400000Y16993113D01*
X50290767Y17542264D01*
X50237926Y17621346D01*
X52548834Y19932255D01*
X52668943Y19981883D01*
X52932192Y20244673D01*
X53074838Y20588201D01*
X53075162Y20960167D01*
X52933117Y21303943D01*
X52670327Y21567192D01*
X52326799Y21709838D01*
X51954833Y21710162D01*
X51611057Y21568117D01*
X51347808Y21305327D01*
X51297434Y21184013D01*
X48436385Y18322965D01*
X48415849Y18318880D01*
X47950302Y18007811D01*
X47945000Y17999876D01*
X47945000Y18324798D01*
X48297430Y18676613D01*
X48520246Y19213214D01*
X48520753Y19794237D01*
X48298874Y20331226D01*
X47888387Y20742430D01*
X47351786Y20965246D01*
X46770763Y20965753D01*
X46233774Y20743874D01*
X45840007Y20350794D01*
X45823162Y20440317D01*
X45684090Y20656441D01*
X45471890Y20801431D01*
X45220000Y20852440D01*
X43820000Y20852440D01*
X43584683Y20808162D01*
X43368559Y20669090D01*
X43223569Y20456890D01*
X43176152Y20222740D01*
X43170822Y20219178D01*
X41373990Y18422346D01*
X41345000Y18428113D01*
X40795849Y18318880D01*
X40330302Y18007811D01*
X40308378Y17975000D01*
X37385431Y17975000D01*
X36909652Y18569725D01*
X38764331Y18569725D01*
X38826169Y18333958D01*
X39327122Y18157581D01*
X39857440Y18186336D01*
X40213831Y18333958D01*
X40275669Y18569725D01*
X39520000Y19325395D01*
X38764331Y18569725D01*
X36909652Y18569725D01*
X36825814Y18674522D01*
X37257535Y18694447D01*
X37669344Y18865024D01*
X37746610Y19113785D01*
X36900000Y19960395D01*
X36885858Y19946252D01*
X36706253Y20125857D01*
X36720395Y20140000D01*
X37079605Y20140000D01*
X37926215Y19293390D01*
X38174976Y19370656D01*
X38188320Y19407605D01*
X38201336Y19167560D01*
X38348958Y18811169D01*
X38584725Y18749331D01*
X39340395Y19505000D01*
X39699605Y19505000D01*
X40455275Y18749331D01*
X40691042Y18811169D01*
X40867419Y19312122D01*
X40838664Y19842440D01*
X40691042Y20198831D01*
X40455275Y20260669D01*
X39699605Y19505000D01*
X39340395Y19505000D01*
X38584725Y20260669D01*
X38359215Y20201521D01*
X38348196Y20440275D01*
X38764331Y20440275D01*
X39520000Y19684605D01*
X40275669Y20440275D01*
X40213831Y20676042D01*
X39712878Y20852419D01*
X39182560Y20823664D01*
X38826169Y20676042D01*
X38764331Y20440275D01*
X38348196Y20440275D01*
X38345553Y20497535D01*
X38174976Y20909344D01*
X37926215Y20986610D01*
X37079605Y20140000D01*
X36720395Y20140000D01*
X35873785Y20986610D01*
X35625024Y20909344D01*
X35623789Y20905926D01*
X35598874Y20966226D01*
X35399234Y21166215D01*
X36053390Y21166215D01*
X36900000Y20319605D01*
X37746610Y21166215D01*
X37669344Y21414976D01*
X37122869Y21612340D01*
X36542465Y21585553D01*
X36130656Y21414976D01*
X36053390Y21166215D01*
X35399234Y21166215D01*
X35370000Y21195500D01*
X35370000Y24239787D01*
X36099392Y24239787D01*
X36168857Y23997603D01*
X36692302Y23810856D01*
X37247368Y23838638D01*
X37631143Y23997603D01*
X37700608Y24239787D01*
X36900000Y25040395D01*
X36099392Y24239787D01*
X35370000Y24239787D01*
X35370000Y24254304D01*
X35543629Y24427630D01*
X35623395Y24619727D01*
X35677603Y24488857D01*
X35919787Y24419392D01*
X36720395Y25220000D01*
X35919787Y26020608D01*
X35677603Y25951143D01*
X35627491Y25810682D01*
X35545010Y26010303D01*
X35260810Y26295000D01*
X36126580Y26295000D01*
X36099392Y26200213D01*
X36900000Y25399605D01*
X37700608Y26200213D01*
X37673420Y26295000D01*
X38539495Y26295000D01*
X38256371Y26012370D01*
X38176605Y25820273D01*
X38122397Y25951143D01*
X37880213Y26020608D01*
X37079605Y25220000D01*
X37880213Y24419392D01*
X38122397Y24488857D01*
X38172509Y24629318D01*
X38254990Y24429697D01*
X38555000Y24129163D01*
X38555000Y23950000D01*
X38582673Y23810877D01*
X38600415Y23670138D01*
X38616164Y23642511D01*
X38622367Y23611325D01*
X38701174Y23493381D01*
X38771423Y23370147D01*
X38796542Y23350652D01*
X38814210Y23324210D01*
X38932160Y23245399D01*
X39044216Y23158432D01*
X39074849Y23143116D01*
X39074716Y22991205D01*
X39323106Y22390057D01*
X39782637Y21929722D01*
X40383352Y21680284D01*
X41033795Y21679716D01*
X41634943Y21928106D01*
X42095278Y22387637D01*
X42344716Y22988352D01*
X42345284Y23638795D01*
X42096894Y24239943D01*
X41637363Y24700278D01*
X41036648Y24949716D01*
X40836765Y24949891D01*
X40837242Y25496661D01*
X40625010Y26010303D01*
X40340810Y26295000D01*
X46159495Y26295000D01*
X45876371Y26012370D01*
X45663243Y25499100D01*
X45662872Y25074452D01*
X45538641Y24950221D01*
X45466205Y24950284D01*
X44865057Y24701894D01*
X44404722Y24242363D01*
X44155284Y23641648D01*
X44154716Y22991205D01*
X44403106Y22390057D01*
X44862637Y21929722D01*
X45463352Y21680284D01*
X46113795Y21679716D01*
X46714943Y21928106D01*
X47175278Y22387637D01*
X47424716Y22988352D01*
X47425284Y23638795D01*
X47347433Y23827209D01*
X47850303Y24034990D01*
X48243629Y24427630D01*
X48329949Y24635512D01*
X48414990Y24429697D01*
X48807630Y24036371D01*
X49320900Y23823243D01*
X49876661Y23822758D01*
X50390303Y24034990D01*
X50783629Y24427630D01*
X50869949Y24635512D01*
X50954990Y24429697D01*
X51255000Y24129163D01*
X51255000Y23621822D01*
X51205162Y23501799D01*
X51204838Y23129833D01*
X51346883Y22786057D01*
X51609673Y22522808D01*
X51953201Y22380162D01*
X52325167Y22379838D01*
X52668943Y22521883D01*
X52932192Y22784673D01*
X53074838Y23128201D01*
X53075162Y23500167D01*
X53025000Y23621569D01*
X53025000Y24129522D01*
X53323629Y24427630D01*
X53409949Y24635512D01*
X53494990Y24429697D01*
X53887630Y24036371D01*
X54400900Y23823243D01*
X54956661Y23822758D01*
X55470303Y24034990D01*
X55863629Y24427630D01*
X56076757Y24940900D01*
X56077242Y25496661D01*
X55865010Y26010303D01*
X55580810Y26295000D01*
X57375000Y26295000D01*
X57375000Y7665000D01*
X30060000Y7665000D01*
X29797862Y7612857D01*
X29575632Y7464368D01*
X26776264Y4665000D01*
X16060000Y4665000D01*
X15797862Y4612857D01*
X15575632Y4464368D01*
X13575632Y2464368D01*
X13427143Y2242138D01*
X13375000Y1980000D01*
X13375000Y1263736D01*
X12776264Y665000D01*
X12742656Y665000D01*
X13007723Y1341187D01*
X12991497Y2190387D01*
X12697739Y2899582D01*
X12578868Y2959166D01*
X12673909Y3054041D01*
X12999628Y3838459D01*
X13000370Y4687815D01*
X12676020Y5472800D01*
X12075959Y6073909D01*
X11291541Y6399628D01*
X10442185Y6400370D01*
X9657200Y6076020D01*
X9056091Y5475959D01*
X8730372Y4691541D01*
X8729630Y3842185D01*
X9053980Y3057200D01*
X9151606Y2959404D01*
X9032261Y2899582D01*
X8722277Y2108813D01*
X8738503Y1259613D01*
X8984800Y665000D01*
X5116593Y665000D01*
X5379628Y1298459D01*
X5380370Y2147815D01*
X5056020Y2932800D01*
X4994346Y2994582D01*
X5053909Y3054041D01*
X5379628Y3838459D01*
X5380370Y4687815D01*
X5056020Y5472800D01*
X4455959Y6073909D01*
X3671541Y6399628D01*
X2822185Y6400370D01*
X2037200Y6076020D01*
X1436091Y5475959D01*
X1110372Y4691541D01*
X1109630Y3842185D01*
X1433980Y3057200D01*
X1495654Y2995418D01*
X1436091Y2935959D01*
X1110372Y2151541D01*
X1109630Y1302185D01*
X1372910Y665000D01*
X1343736Y665000D01*
X745000Y1263736D01*
X745000Y20362869D01*
X10027660Y20362869D01*
X10054447Y19782465D01*
X10225024Y19370656D01*
X10473785Y19293390D01*
X11320395Y20140000D01*
X10473785Y20986610D01*
X10225024Y20909344D01*
X10027660Y20362869D01*
X745000Y20362869D01*
X745000Y24053339D01*
X4852758Y24053339D01*
X5064990Y23539697D01*
X5457630Y23146371D01*
X5970900Y22933243D01*
X6526661Y22932758D01*
X7040303Y23144990D01*
X7433629Y23537630D01*
X7519949Y23745512D01*
X7604990Y23539697D01*
X7997630Y23146371D01*
X8510900Y22933243D01*
X9066661Y22932758D01*
X9580303Y23144990D01*
X9973629Y23537630D01*
X10053395Y23729727D01*
X10107603Y23598857D01*
X10349787Y23529392D01*
X11150395Y24330000D01*
X10349787Y25130608D01*
X10107603Y25061143D01*
X10057491Y24920682D01*
X9975010Y25120303D01*
X9785432Y25310213D01*
X10529392Y25310213D01*
X11330000Y24509605D01*
X12130608Y25310213D01*
X12061143Y25552397D01*
X11537698Y25739144D01*
X10982632Y25711362D01*
X10598857Y25552397D01*
X10529392Y25310213D01*
X9785432Y25310213D01*
X9582370Y25513629D01*
X9069100Y25726757D01*
X8513339Y25727242D01*
X7999697Y25515010D01*
X7606371Y25122370D01*
X7520051Y24914488D01*
X7435010Y25120303D01*
X7042370Y25513629D01*
X6529100Y25726757D01*
X5973339Y25727242D01*
X5459697Y25515010D01*
X5066371Y25122370D01*
X4853243Y24609100D01*
X4852758Y24053339D01*
X745000Y24053339D01*
X745000Y26295000D01*
X21963158Y26295000D01*
X21898322Y26251678D01*
X21898322Y26251678D01*
G37*
X21898322Y26251678D02*
X18701644Y23055000D01*
X17019608Y23055000D01*
X16971217Y23103391D01*
X17219976Y23180656D01*
X17417340Y23727131D01*
X17390553Y24307535D01*
X17219976Y24719344D01*
X16971215Y24796610D01*
X16124605Y23950000D01*
X16138748Y23935857D01*
X15959143Y23756252D01*
X15945000Y23770395D01*
X15930858Y23756252D01*
X15751253Y23935857D01*
X15765395Y23950000D01*
X15751253Y23964142D01*
X15930858Y24143747D01*
X15945000Y24129605D01*
X16791610Y24976215D01*
X16714344Y25224976D01*
X16167869Y25422340D01*
X15587465Y25395553D01*
X15175656Y25224976D01*
X15105323Y24998536D01*
X15055010Y25120303D01*
X14662370Y25513629D01*
X14149100Y25726757D01*
X13593339Y25727242D01*
X13079697Y25515010D01*
X12686371Y25122370D01*
X12606605Y24930273D01*
X12552397Y25061143D01*
X12310213Y25130608D01*
X11509605Y24330000D01*
X11523748Y24315857D01*
X11344143Y24136252D01*
X11330000Y24150395D01*
X10529392Y23349787D01*
X10598857Y23107603D01*
X11122302Y22920856D01*
X11677368Y22948638D01*
X12061143Y23107603D01*
X12130607Y23349785D01*
X12221811Y23258581D01*
X12126882Y23116510D01*
X12050000Y22730000D01*
X12050000Y21494194D01*
X11722869Y21612340D01*
X11142465Y21585553D01*
X10730656Y21414976D01*
X10653390Y21166215D01*
X11500000Y20319605D01*
X11514143Y20333747D01*
X11693748Y20154142D01*
X11679605Y20140000D01*
X11693748Y20125857D01*
X11514143Y19946252D01*
X11500000Y19960395D01*
X10653390Y19113785D01*
X10730656Y18865024D01*
X10940780Y18789136D01*
X7641644Y15490000D01*
X5045654Y15490000D01*
X5243629Y15687630D01*
X5456757Y16200900D01*
X5457242Y16756661D01*
X5245010Y17270303D01*
X4852370Y17663629D01*
X4339100Y17876757D01*
X3783339Y17877242D01*
X3269697Y17665010D01*
X2876371Y17272370D01*
X2663243Y16759100D01*
X2662758Y16203339D01*
X2874990Y15689697D01*
X3084342Y15479979D01*
X2876371Y15272370D01*
X2663243Y14759100D01*
X2662758Y14203339D01*
X2874990Y13689697D01*
X3084342Y13479979D01*
X2876371Y13272370D01*
X2663243Y12759100D01*
X2662758Y12203339D01*
X2874990Y11689697D01*
X3267630Y11296371D01*
X3780900Y11083243D01*
X4336661Y11082758D01*
X4850303Y11294990D01*
X5025619Y11470000D01*
X7440000Y11470000D01*
X7440000Y11289399D01*
X7117200Y11156020D01*
X6516091Y10555959D01*
X6190372Y9771541D01*
X6189630Y8922185D01*
X6513980Y8137200D01*
X7114041Y7536091D01*
X7898459Y7210372D01*
X8747815Y7209630D01*
X9532800Y7533980D01*
X10133909Y8134041D01*
X10459628Y8918459D01*
X10460370Y9767815D01*
X10136020Y10552800D01*
X9535959Y11153909D01*
X9210000Y11289259D01*
X9210000Y11518420D01*
X10039349Y12347770D01*
X10039247Y12230763D01*
X10261126Y11693774D01*
X10671613Y11282570D01*
X11208214Y11059754D01*
X11709104Y11059317D01*
X12520000Y10248421D01*
X12520000Y8620202D01*
X12167570Y8268387D01*
X11944754Y7731786D01*
X11944247Y7150763D01*
X12166126Y6613774D01*
X12576613Y6202570D01*
X13113214Y5979754D01*
X13694237Y5979247D01*
X14231226Y6201126D01*
X14642430Y6611613D01*
X14865246Y7148214D01*
X14865753Y7729237D01*
X14643874Y8266226D01*
X14290000Y8620718D01*
X14290000Y10248420D01*
X14660291Y10618712D01*
X14619233Y10557264D01*
X14510000Y10008113D01*
X14510000Y9951887D01*
X14619233Y9402736D01*
X14930302Y8937189D01*
X15395849Y8626120D01*
X15945000Y8516887D01*
X16121438Y8551983D01*
X17859208Y6814213D01*
X17859210Y6814210D01*
X18146325Y6622367D01*
X18485000Y6555000D01*
X19844798Y6555000D01*
X20196613Y6202570D01*
X20733214Y5979754D01*
X21314237Y5979247D01*
X21851226Y6201126D01*
X22205718Y6555000D01*
X25469995Y6555000D01*
X25470000Y6554999D01*
X25765475Y6613774D01*
X25808675Y6622367D01*
X26095790Y6814210D01*
X26095791Y6814211D01*
X30341261Y11059682D01*
X30839237Y11059247D01*
X31376226Y11281126D01*
X31787430Y11691613D01*
X32010246Y12228214D01*
X32010248Y12230763D01*
X32899247Y12230763D01*
X33121126Y11693774D01*
X33531613Y11282570D01*
X34068214Y11059754D01*
X34649237Y11059247D01*
X35186226Y11281126D01*
X35540718Y11635000D01*
X35719798Y11635000D01*
X36071613Y11282570D01*
X36608214Y11059754D01*
X37189237Y11059247D01*
X37726226Y11281126D01*
X38080718Y11635000D01*
X40978420Y11635000D01*
X41955598Y10657822D01*
X41894151Y10698880D01*
X41345000Y10808113D01*
X40795849Y10698880D01*
X40330302Y10387811D01*
X40019233Y9922264D01*
X39910000Y9373113D01*
X39910000Y9316887D01*
X40019233Y8767736D01*
X40330302Y8302189D01*
X40795849Y7991120D01*
X41345000Y7881887D01*
X41894151Y7991120D01*
X42359698Y8302189D01*
X42615000Y8684275D01*
X42870302Y8302189D01*
X43335849Y7991120D01*
X43885000Y7881887D01*
X44434151Y7991120D01*
X44899698Y8302189D01*
X45155000Y8684275D01*
X45410302Y8302189D01*
X45875849Y7991120D01*
X46425000Y7881887D01*
X46974151Y7991120D01*
X47439698Y8302189D01*
X47709986Y8706703D01*
X47812611Y8489866D01*
X48227577Y8113959D01*
X48615961Y7953096D01*
X48838000Y8075085D01*
X48838000Y9218000D01*
X49092000Y9218000D01*
X49092000Y8075085D01*
X49314039Y7953096D01*
X49702423Y8113959D01*
X50117389Y8489866D01*
X50356914Y8995959D01*
X50235629Y9218000D01*
X49092000Y9218000D01*
X48838000Y9218000D01*
X48818000Y9218000D01*
X48818000Y9472000D01*
X48838000Y9472000D01*
X48838000Y10614915D01*
X49092000Y10614915D01*
X49092000Y9472000D01*
X50235629Y9472000D01*
X50356914Y9694041D01*
X50117389Y10200134D01*
X49702423Y10576041D01*
X49314039Y10736904D01*
X49092000Y10614915D01*
X48838000Y10614915D01*
X48615961Y10736904D01*
X48227577Y10576041D01*
X47812611Y10200134D01*
X47709986Y9983297D01*
X47439698Y10387811D01*
X46974151Y10698880D01*
X46425000Y10808113D01*
X45875849Y10698880D01*
X45410302Y10387811D01*
X45155000Y10005725D01*
X44899698Y10387811D01*
X44434151Y10698880D01*
X44413614Y10702965D01*
X41970790Y13145790D01*
X41850197Y13226367D01*
X41683675Y13337633D01*
X41627484Y13348810D01*
X41345000Y13405001D01*
X41344995Y13405000D01*
X38080202Y13405000D01*
X37981126Y13504250D01*
X53045000Y13504250D01*
X53045000Y12663690D01*
X53141673Y12430301D01*
X53320302Y12251673D01*
X53553691Y12155000D01*
X54394250Y12155000D01*
X54553000Y12313750D01*
X54553000Y13663000D01*
X54807000Y13663000D01*
X54807000Y12313750D01*
X54965750Y12155000D01*
X55806309Y12155000D01*
X56039698Y12251673D01*
X56218327Y12430301D01*
X56315000Y12663690D01*
X56315000Y13504250D01*
X56156250Y13663000D01*
X54807000Y13663000D01*
X54553000Y13663000D01*
X53203750Y13663000D01*
X53045000Y13504250D01*
X37981126Y13504250D01*
X37728387Y13757430D01*
X37191786Y13980246D01*
X36610763Y13980753D01*
X36073774Y13758874D01*
X35719282Y13405000D01*
X35540202Y13405000D01*
X35188387Y13757430D01*
X34651786Y13980246D01*
X34070763Y13980753D01*
X33533774Y13758874D01*
X33122570Y13348387D01*
X32899754Y12811786D01*
X32899247Y12230763D01*
X32010248Y12230763D01*
X32010753Y12809237D01*
X31788874Y13346226D01*
X31378387Y13757430D01*
X30841786Y13980246D01*
X30260763Y13980753D01*
X29723774Y13758874D01*
X29312570Y13348387D01*
X29089754Y12811786D01*
X29089317Y12310896D01*
X25103420Y8325000D01*
X22205202Y8325000D01*
X21853387Y8677430D01*
X21728532Y8729274D01*
X22039698Y8937189D01*
X22309986Y9341703D01*
X22412611Y9124866D01*
X22827577Y8748959D01*
X23215961Y8588096D01*
X23438000Y8710085D01*
X23438000Y9853000D01*
X23692000Y9853000D01*
X23692000Y8710085D01*
X23914039Y8588096D01*
X24302423Y8748959D01*
X24717389Y9124866D01*
X24956914Y9630959D01*
X24835629Y9853000D01*
X23692000Y9853000D01*
X23438000Y9853000D01*
X23418000Y9853000D01*
X23418000Y10107000D01*
X23438000Y10107000D01*
X23438000Y11249915D01*
X23692000Y11249915D01*
X23692000Y10107000D01*
X24835629Y10107000D01*
X24956914Y10329041D01*
X24717389Y10835134D01*
X24302423Y11211041D01*
X23914039Y11371904D01*
X23692000Y11249915D01*
X23438000Y11249915D01*
X23215961Y11371904D01*
X22827577Y11211041D01*
X22412611Y10835134D01*
X22309986Y10618297D01*
X22039698Y11022811D01*
X21574151Y11333880D01*
X21025000Y11443113D01*
X20954491Y11429088D01*
X19448855Y12934725D01*
X27254331Y12934725D01*
X27316169Y12698958D01*
X27817122Y12522581D01*
X28347440Y12551336D01*
X28703831Y12698958D01*
X28765669Y12934725D01*
X28010000Y13690395D01*
X27254331Y12934725D01*
X19448855Y12934725D01*
X17713790Y14669790D01*
X17636660Y14721326D01*
X17426675Y14861633D01*
X17370484Y14872810D01*
X17088000Y14929001D01*
X17087995Y14929000D01*
X11437356Y14929000D01*
X13098356Y16590000D01*
X14908378Y16590000D01*
X14930302Y16557189D01*
X15395849Y16246120D01*
X15945000Y16136887D01*
X16494151Y16246120D01*
X16959698Y16557189D01*
X17215000Y16939275D01*
X17470302Y16557189D01*
X17935849Y16246120D01*
X18485000Y16136887D01*
X18661438Y16171983D01*
X19764208Y15069213D01*
X19764210Y15069210D01*
X20051325Y14877367D01*
X20105907Y14866510D01*
X20390000Y14809999D01*
X20390005Y14810000D01*
X27028556Y14810000D01*
X26959474Y14740918D01*
X27074723Y14625669D01*
X26838958Y14563831D01*
X26662581Y14062878D01*
X26691336Y13532560D01*
X26838958Y13176169D01*
X27074725Y13114331D01*
X27830395Y13870000D01*
X27816252Y13884142D01*
X27995858Y14063748D01*
X28010000Y14049605D01*
X28024142Y14063748D01*
X28203748Y13884142D01*
X28189605Y13870000D01*
X28945275Y13114331D01*
X29181042Y13176169D01*
X29357419Y13677122D01*
X29328664Y14207440D01*
X29181042Y14563831D01*
X28945277Y14625669D01*
X29060526Y14740918D01*
X28991444Y14810000D01*
X39073420Y14810000D01*
X39449208Y14434213D01*
X39449210Y14434210D01*
X39526340Y14382674D01*
X39736326Y14242366D01*
X40075000Y14174999D01*
X40075005Y14175000D01*
X41979995Y14175000D01*
X41980000Y14174999D01*
X42262484Y14231190D01*
X42318675Y14242367D01*
X42605790Y14434210D01*
X43708562Y15536983D01*
X43885000Y15501887D01*
X44434151Y15611120D01*
X44899698Y15922189D01*
X45155000Y16304275D01*
X45410302Y15922189D01*
X45875849Y15611120D01*
X46425000Y15501887D01*
X46974151Y15611120D01*
X47439698Y15922189D01*
X47695000Y16304275D01*
X47950302Y15922189D01*
X48415849Y15611120D01*
X48965000Y15501887D01*
X49514151Y15611120D01*
X49979698Y15922189D01*
X50035835Y16006205D01*
X53044716Y16006205D01*
X53293106Y15405057D01*
X53355251Y15342803D01*
X53320302Y15328327D01*
X53141673Y15149699D01*
X53045000Y14916310D01*
X53045000Y14075750D01*
X53203750Y13917000D01*
X54553000Y13917000D01*
X54553000Y13937000D01*
X54807000Y13937000D01*
X54807000Y13917000D01*
X56156250Y13917000D01*
X56315000Y14075750D01*
X56315000Y14916310D01*
X56218327Y15149699D01*
X56039698Y15328327D01*
X56005166Y15342630D01*
X56065278Y15402637D01*
X56314716Y16003352D01*
X56315284Y16653795D01*
X56066894Y17254943D01*
X55607363Y17715278D01*
X55565000Y17732869D01*
X55565000Y18324798D01*
X55917430Y18676613D01*
X56140246Y19213214D01*
X56140753Y19794237D01*
X55918874Y20331226D01*
X55508387Y20742430D01*
X54971786Y20965246D01*
X54390763Y20965753D01*
X53853774Y20743874D01*
X53442570Y20333387D01*
X53219754Y19796786D01*
X53219247Y19215763D01*
X53441126Y18678774D01*
X53795000Y18324282D01*
X53795000Y17733398D01*
X53755057Y17716894D01*
X53294722Y17257363D01*
X53045284Y16656648D01*
X53044716Y16006205D01*
X50035835Y16006205D01*
X50290767Y16387736D01*
X50400000Y16936887D01*
X50400000Y16993113D01*
X50290767Y17542264D01*
X50237926Y17621346D01*
X52548834Y19932255D01*
X52668943Y19981883D01*
X52932192Y20244673D01*
X53074838Y20588201D01*
X53075162Y20960167D01*
X52933117Y21303943D01*
X52670327Y21567192D01*
X52326799Y21709838D01*
X51954833Y21710162D01*
X51611057Y21568117D01*
X51347808Y21305327D01*
X51297434Y21184013D01*
X48436385Y18322965D01*
X48415849Y18318880D01*
X47950302Y18007811D01*
X47945000Y17999876D01*
X47945000Y18324798D01*
X48297430Y18676613D01*
X48520246Y19213214D01*
X48520753Y19794237D01*
X48298874Y20331226D01*
X47888387Y20742430D01*
X47351786Y20965246D01*
X46770763Y20965753D01*
X46233774Y20743874D01*
X45840007Y20350794D01*
X45823162Y20440317D01*
X45684090Y20656441D01*
X45471890Y20801431D01*
X45220000Y20852440D01*
X43820000Y20852440D01*
X43584683Y20808162D01*
X43368559Y20669090D01*
X43223569Y20456890D01*
X43176152Y20222740D01*
X43170822Y20219178D01*
X41373990Y18422346D01*
X41345000Y18428113D01*
X40795849Y18318880D01*
X40330302Y18007811D01*
X40308378Y17975000D01*
X37385431Y17975000D01*
X36909652Y18569725D01*
X38764331Y18569725D01*
X38826169Y18333958D01*
X39327122Y18157581D01*
X39857440Y18186336D01*
X40213831Y18333958D01*
X40275669Y18569725D01*
X39520000Y19325395D01*
X38764331Y18569725D01*
X36909652Y18569725D01*
X36825814Y18674522D01*
X37257535Y18694447D01*
X37669344Y18865024D01*
X37746610Y19113785D01*
X36900000Y19960395D01*
X36885858Y19946252D01*
X36706253Y20125857D01*
X36720395Y20140000D01*
X37079605Y20140000D01*
X37926215Y19293390D01*
X38174976Y19370656D01*
X38188320Y19407605D01*
X38201336Y19167560D01*
X38348958Y18811169D01*
X38584725Y18749331D01*
X39340395Y19505000D01*
X39699605Y19505000D01*
X40455275Y18749331D01*
X40691042Y18811169D01*
X40867419Y19312122D01*
X40838664Y19842440D01*
X40691042Y20198831D01*
X40455275Y20260669D01*
X39699605Y19505000D01*
X39340395Y19505000D01*
X38584725Y20260669D01*
X38359215Y20201521D01*
X38348196Y20440275D01*
X38764331Y20440275D01*
X39520000Y19684605D01*
X40275669Y20440275D01*
X40213831Y20676042D01*
X39712878Y20852419D01*
X39182560Y20823664D01*
X38826169Y20676042D01*
X38764331Y20440275D01*
X38348196Y20440275D01*
X38345553Y20497535D01*
X38174976Y20909344D01*
X37926215Y20986610D01*
X37079605Y20140000D01*
X36720395Y20140000D01*
X35873785Y20986610D01*
X35625024Y20909344D01*
X35623789Y20905926D01*
X35598874Y20966226D01*
X35399234Y21166215D01*
X36053390Y21166215D01*
X36900000Y20319605D01*
X37746610Y21166215D01*
X37669344Y21414976D01*
X37122869Y21612340D01*
X36542465Y21585553D01*
X36130656Y21414976D01*
X36053390Y21166215D01*
X35399234Y21166215D01*
X35370000Y21195500D01*
X35370000Y24239787D01*
X36099392Y24239787D01*
X36168857Y23997603D01*
X36692302Y23810856D01*
X37247368Y23838638D01*
X37631143Y23997603D01*
X37700608Y24239787D01*
X36900000Y25040395D01*
X36099392Y24239787D01*
X35370000Y24239787D01*
X35370000Y24254304D01*
X35543629Y24427630D01*
X35623395Y24619727D01*
X35677603Y24488857D01*
X35919787Y24419392D01*
X36720395Y25220000D01*
X35919787Y26020608D01*
X35677603Y25951143D01*
X35627491Y25810682D01*
X35545010Y26010303D01*
X35260810Y26295000D01*
X36126580Y26295000D01*
X36099392Y26200213D01*
X36900000Y25399605D01*
X37700608Y26200213D01*
X37673420Y26295000D01*
X38539495Y26295000D01*
X38256371Y26012370D01*
X38176605Y25820273D01*
X38122397Y25951143D01*
X37880213Y26020608D01*
X37079605Y25220000D01*
X37880213Y24419392D01*
X38122397Y24488857D01*
X38172509Y24629318D01*
X38254990Y24429697D01*
X38555000Y24129163D01*
X38555000Y23950000D01*
X38582673Y23810877D01*
X38600415Y23670138D01*
X38616164Y23642511D01*
X38622367Y23611325D01*
X38701174Y23493381D01*
X38771423Y23370147D01*
X38796542Y23350652D01*
X38814210Y23324210D01*
X38932160Y23245399D01*
X39044216Y23158432D01*
X39074849Y23143116D01*
X39074716Y22991205D01*
X39323106Y22390057D01*
X39782637Y21929722D01*
X40383352Y21680284D01*
X41033795Y21679716D01*
X41634943Y21928106D01*
X42095278Y22387637D01*
X42344716Y22988352D01*
X42345284Y23638795D01*
X42096894Y24239943D01*
X41637363Y24700278D01*
X41036648Y24949716D01*
X40836765Y24949891D01*
X40837242Y25496661D01*
X40625010Y26010303D01*
X40340810Y26295000D01*
X46159495Y26295000D01*
X45876371Y26012370D01*
X45663243Y25499100D01*
X45662872Y25074452D01*
X45538641Y24950221D01*
X45466205Y24950284D01*
X44865057Y24701894D01*
X44404722Y24242363D01*
X44155284Y23641648D01*
X44154716Y22991205D01*
X44403106Y22390057D01*
X44862637Y21929722D01*
X45463352Y21680284D01*
X46113795Y21679716D01*
X46714943Y21928106D01*
X47175278Y22387637D01*
X47424716Y22988352D01*
X47425284Y23638795D01*
X47347433Y23827209D01*
X47850303Y24034990D01*
X48243629Y24427630D01*
X48329949Y24635512D01*
X48414990Y24429697D01*
X48807630Y24036371D01*
X49320900Y23823243D01*
X49876661Y23822758D01*
X50390303Y24034990D01*
X50783629Y24427630D01*
X50869949Y24635512D01*
X50954990Y24429697D01*
X51255000Y24129163D01*
X51255000Y23621822D01*
X51205162Y23501799D01*
X51204838Y23129833D01*
X51346883Y22786057D01*
X51609673Y22522808D01*
X51953201Y22380162D01*
X52325167Y22379838D01*
X52668943Y22521883D01*
X52932192Y22784673D01*
X53074838Y23128201D01*
X53075162Y23500167D01*
X53025000Y23621569D01*
X53025000Y24129522D01*
X53323629Y24427630D01*
X53409949Y24635512D01*
X53494990Y24429697D01*
X53887630Y24036371D01*
X54400900Y23823243D01*
X54956661Y23822758D01*
X55470303Y24034990D01*
X55863629Y24427630D01*
X56076757Y24940900D01*
X56077242Y25496661D01*
X55865010Y26010303D01*
X55580810Y26295000D01*
X57375000Y26295000D01*
X57375000Y7665000D01*
X30060000Y7665000D01*
X29797862Y7612857D01*
X29575632Y7464368D01*
X26776264Y4665000D01*
X16060000Y4665000D01*
X15797862Y4612857D01*
X15575632Y4464368D01*
X13575632Y2464368D01*
X13427143Y2242138D01*
X13375000Y1980000D01*
X13375000Y1263736D01*
X12776264Y665000D01*
X12742656Y665000D01*
X13007723Y1341187D01*
X12991497Y2190387D01*
X12697739Y2899582D01*
X12578868Y2959166D01*
X12673909Y3054041D01*
X12999628Y3838459D01*
X13000370Y4687815D01*
X12676020Y5472800D01*
X12075959Y6073909D01*
X11291541Y6399628D01*
X10442185Y6400370D01*
X9657200Y6076020D01*
X9056091Y5475959D01*
X8730372Y4691541D01*
X8729630Y3842185D01*
X9053980Y3057200D01*
X9151606Y2959404D01*
X9032261Y2899582D01*
X8722277Y2108813D01*
X8738503Y1259613D01*
X8984800Y665000D01*
X5116593Y665000D01*
X5379628Y1298459D01*
X5380370Y2147815D01*
X5056020Y2932800D01*
X4994346Y2994582D01*
X5053909Y3054041D01*
X5379628Y3838459D01*
X5380370Y4687815D01*
X5056020Y5472800D01*
X4455959Y6073909D01*
X3671541Y6399628D01*
X2822185Y6400370D01*
X2037200Y6076020D01*
X1436091Y5475959D01*
X1110372Y4691541D01*
X1109630Y3842185D01*
X1433980Y3057200D01*
X1495654Y2995418D01*
X1436091Y2935959D01*
X1110372Y2151541D01*
X1109630Y1302185D01*
X1372910Y665000D01*
X1343736Y665000D01*
X745000Y1263736D01*
X745000Y20362869D01*
X10027660Y20362869D01*
X10054447Y19782465D01*
X10225024Y19370656D01*
X10473785Y19293390D01*
X11320395Y20140000D01*
X10473785Y20986610D01*
X10225024Y20909344D01*
X10027660Y20362869D01*
X745000Y20362869D01*
X745000Y24053339D01*
X4852758Y24053339D01*
X5064990Y23539697D01*
X5457630Y23146371D01*
X5970900Y22933243D01*
X6526661Y22932758D01*
X7040303Y23144990D01*
X7433629Y23537630D01*
X7519949Y23745512D01*
X7604990Y23539697D01*
X7997630Y23146371D01*
X8510900Y22933243D01*
X9066661Y22932758D01*
X9580303Y23144990D01*
X9973629Y23537630D01*
X10053395Y23729727D01*
X10107603Y23598857D01*
X10349787Y23529392D01*
X11150395Y24330000D01*
X10349787Y25130608D01*
X10107603Y25061143D01*
X10057491Y24920682D01*
X9975010Y25120303D01*
X9785432Y25310213D01*
X10529392Y25310213D01*
X11330000Y24509605D01*
X12130608Y25310213D01*
X12061143Y25552397D01*
X11537698Y25739144D01*
X10982632Y25711362D01*
X10598857Y25552397D01*
X10529392Y25310213D01*
X9785432Y25310213D01*
X9582370Y25513629D01*
X9069100Y25726757D01*
X8513339Y25727242D01*
X7999697Y25515010D01*
X7606371Y25122370D01*
X7520051Y24914488D01*
X7435010Y25120303D01*
X7042370Y25513629D01*
X6529100Y25726757D01*
X5973339Y25727242D01*
X5459697Y25515010D01*
X5066371Y25122370D01*
X4853243Y24609100D01*
X4852758Y24053339D01*
X745000Y24053339D01*
X745000Y26295000D01*
X21963158Y26295000D01*
X21898322Y26251678D01*
G36*
X11058748Y1739142D02*
X11044605Y1725000D01*
X11058748Y1710857D01*
X10879143Y1531252D01*
X10865000Y1545395D01*
X10850858Y1531252D01*
X10671253Y1710857D01*
X10685395Y1725000D01*
X10671253Y1739142D01*
X10850858Y1918747D01*
X10865000Y1904605D01*
X10879143Y1918747D01*
X11058748Y1739142D01*
X11058748Y1739142D01*
G37*
X11058748Y1739142D02*
X11044605Y1725000D01*
X11058748Y1710857D01*
X10879143Y1531252D01*
X10865000Y1545395D01*
X10850858Y1531252D01*
X10671253Y1710857D01*
X10685395Y1725000D01*
X10671253Y1739142D01*
X10850858Y1918747D01*
X10865000Y1904605D01*
X10879143Y1918747D01*
X11058748Y1739142D01*
M02*
