M48
;DRILL file {KiCad 4.0.4-stable} date Friday, 10 March 2017 'PMt' 15:49:31
;FORMAT={3:3/ absolute / metric / suppress leading zeros}
FMAT,2
METRIC,TZ
T1C0.400
T2C0.762
T3C0.800
T4C0.813
T5C0.900
T6C1.000
T7C1.001
%
G90
G05
M71
T1
X52140Y23315
X52140Y20775
T2
X3245Y4265
X3245Y1725
X4060Y16480
X4060Y14480
X4060Y12480
X6250Y24330
X8325Y9345
X8790Y24330
X10865Y4265
X10865Y1725
X11330Y24330
X13870Y24330
X34360Y25220
X36900Y25220
X39440Y25220
X47060Y25220
X49600Y25220
X52140Y25220
X54680Y25220
T3
X15945Y17600
X15945Y9980
X18485Y17600
X18485Y9980
X21025Y17600
X21025Y9980
X23565Y17600
X23565Y9980
X41345Y16965
X41345Y9345
X43885Y16965
X43885Y9345
X46425Y16965
X46425Y9345
X48965Y16965
X48965Y9345
T4
X11500Y20140
X11500Y12520
X13405Y7440
X15945Y23950
X15945Y20140
X21025Y7440
X23565Y23950
X23565Y20140
X30550Y20140
X30550Y12520
X34360Y20140
X34360Y12520
X36900Y20140
X36900Y12520
X47060Y19505
X54680Y19505
T5
X28010Y18870
X28010Y13870
X39520Y19505
X44520Y19505
T6
X40710Y23315
X45790Y23315
T7
X54680Y16330
X54680Y13790
T0
M30
